#extradata 0:       46, 0x6fed1203
#extradata 1:       26, 0x5e13070a
#extradata 2:       12, 0x044800b1
#extradata 3:       27, 0x5f3604aa
#extradata 4:       17, 0x1d8a047e
#extradata 5:       34, 0x2b7301d1
#extradata 6:     2483, 0x3e1a58a8
#extradata 8:       46, 0x6fed1203
#extradata 9:       26, 0x5e13070a
#tb 0: 1/1000
#media_type 0: video
#codec_id 0: h264
#dimensions 0: 1920x1080
#sar 0: 1/1
#tb 1: 1/1000
#media_type 1: audio
#codec_id 1: aac
#sample_rate 1: 48000
#channel_layout_name 1: 5.1
#tb 2: 1/1000
#media_type 2: video
#codec_id 2: vp9
#dimensions 2: 1920x1080
#sar 2: 0/1
#tb 3: 1/1000
#media_type 3: audio
#codec_id 3: opus
#sample_rate 3: 48000
#channel_layout_name 3: 5.1
#tb 4: 1/1000
#media_type 4: video
#codec_id 4: av1
#dimensions 4: 1920x1080
#sar 4: 0/1
#tb 5: 1/1000
#media_type 5: audio
#codec_id 5: flac
#sample_rate 5: 48000
#channel_layout_name 5: 5.1
#tb 6: 1/1000
#media_type 6: video
#codec_id 6: hevc
#dimensions 6: 1920x1080
#sar 6: 1/1
#tb 7: 1/1000
#media_type 7: audio
#codec_id 7: ac3
#sample_rate 7: 48000
#channel_layout_name 7: 5.1(side)
#tb 8: 1/1000
#media_type 8: video
#codec_id 8: h264
#dimensions 8: 1920x1080
#sar 8: 1/1
#tb 9: 1/1000
#media_type 9: audio
#codec_id 9: aac
#sample_rate 9: 48000
#channel_layout_name 9: 5.1
0,        -62,         21,       41,     1106, 0x1088ff56
6,        -62,         21,       41,      606, 0xfed0238f
8,        -62,         21,       41,     1106, 0x1088ff56
0,        -21,        188,       41,       71, 0x3aba0538, F=0x0
6,        -21,        230,       41,      122, 0x75a01d96, F=0x0
8,        -21,        188,       41,       71, 0x3aba0538, F=0x0
1,          0,          0,       21,       36, 0x9be90826
9,          0,          0,       21,       36, 0x9be90826
3,         14,         14,        0,       15, 0x59350be2
7,         16,         16,       32,     1792, 0xee09f476
0,         21,        104,       41,       68, 0xd4bd03eb, F=0x0
1,         21,         21,       21,       19, 0x1b470383
2,         21,         21,       42,      210, 0x8f8f5b9d
4,         21,         21,       42,       64, 0xaa18197a
5,         21,         21,        0,       32, 0x6c35052d
6,         21,        146,       41,      112, 0x7bac13f3, F=0x0
8,         21,        104,       41,       68, 0xd4bd03eb, F=0x0
9,         21,         21,       21,       19, 0x1b470383
3,         35,         35,        0,       15, 0x59350be2
1,         42,         42,       21,       19, 0x1b470383
9,         42,         42,       21,       19, 0x1b470383
7,         48,         48,       32,     1792, 0xee09f476
3,         55,         55,        0,       15, 0x59350be2
0,         63,         63,       41,       68, 0xacca0330, F=0x0
2,         63,         63,       42,       48, 0xbdc5114d, F=0x0
4,         63,         63,       42,      118, 0x65d0215d, F=0x0
6,         63,         63,       41,      109, 0x1bf51b57, F=0x0
8,         63,         63,       41,       68, 0xacca0330, F=0x0
1,         64,         64,       21,       19, 0x1b470383
9,         64,         64,       21,       19, 0x1b470383
3,         75,         75,        0,       15, 0x59350be2
7,         80,         80,       32,     1792, 0xee09f476
1,         85,         85,       21,       19, 0x1b470383
9,         85,         85,       21,       19, 0x1b470383
3,         94,         94,        0,       15, 0x59350be2
0,        104,        146,       41,       68, 0xaae50329, F=0x0
2,        104,        104,       42,       40, 0xe68b0b98, F=0x0
4,        104,        104,       42,        5, 0x01920115, F=0x0
6,        104,        104,       41,      109, 0x16cf1b49, F=0x0
8,        104,        146,       41,       68, 0xaae50329, F=0x0
1,        106,        106,       21,       19, 0x1b470383
9,        106,        106,       21,       19, 0x1b470383
7,        112,        112,       32,     1792, 0xee09f476
3,        114,        114,        0,       15, 0x59350be2
5,        117,        117,        0,       32, 0x6c5604a8
1,        128,        128,       21,       19, 0x1b470383
9,        128,        128,       21,       19, 0x1b470383
3,        134,        134,        0,       15, 0x59350be2
7,        143,        143,       32,     1792, 0xee09f476
0,        146,        355,       41,       77, 0x02b20812, F=0x0
2,        146,        146,       42,       40, 0xc9ef0aba, F=0x0
4,        146,        146,       42,       22, 0x27760533, F=0x0
6,        146,        188,       41,      108, 0xb7521a42, F=0x0
8,        146,        355,       41,       77, 0x02b20812, F=0x0
1,        149,        149,       21,       19, 0x1b470383
9,        149,        149,       21,       19, 0x1b470383
3,        154,        154,        0,       15, 0x59350be2
1,        170,        170,       21,       19, 0x1b470383
9,        170,        170,       21,       19, 0x1b470383
3,        174,        174,        0,       15, 0x59350be2
7,        175,        175,       32,     1792, 0xee09f476
0,        188,        271,       41,       70, 0xd7da03e5, F=0x0
2,        188,        188,       42,       40, 0xd1c90af7, F=0x0
4,        188,        188,       42,        5, 0x01820105, F=0x0
6,        188,        438,       41,      124, 0xaba02042, F=0x0
8,        188,        271,       41,       70, 0xd7da03e5, F=0x0
1,        191,        191,       21,       19, 0x1b470383
9,        191,        191,       21,       19, 0x1b470383
3,        194,        194,        0,       15, 0x59350be2
7,        207,        207,       32,     1792, 0xee09f476
1,        213,        213,       21,       19, 0x1b470383
5,        213,        213,        0,       32, 0x6ca1056e
9,        213,        213,       21,       19, 0x1b470383
3,        214,        214,        0,       15, 0x59350be2
0,        230,        230,       41,       68, 0xbd430375, F=0x0
2,        230,        230,       42,       40, 0xc9ef0aba, F=0x0
4,        230,        230,       42,       42, 0xc39c0af1, F=0x0
6,        230,        355,       41,      114, 0x7f521402, F=0x0
8,        230,        230,       41,       68, 0xbd430375, F=0x0
1,        234,        234,       21,       19, 0x1b470383
3,        234,        234,        0,       15, 0x59350be2
9,        234,        234,       21,       19, 0x1b470383
7,        239,        239,       32,     1792, 0xee09f476
3,        254,        254,        0,       15, 0x59350be2
1,        255,        255,       21,       19, 0x1b470383
9,        255,        255,       21,       19, 0x1b470383
0,        271,        313,       41,       68, 0xbb5c036c, F=0x0
2,        271,        271,       42,       40, 0xe68b0b98, F=0x0
4,        271,        271,       42,        5, 0x01920115, F=0x0
6,        271,        271,       41,      110, 0x71fe1952, F=0x0
7,        271,        271,       32,     1792, 0xee09f476
8,        271,        313,       41,       68, 0xbb5c036c, F=0x0
3,        274,        274,        0,       15, 0x59350be2
1,        276,        276,       21,       19, 0x1b470383
9,        276,        276,       21,       19, 0x1b470383
3,        294,        294,        0,       15, 0x59350be2
1,        299,        299,       21,       19, 0x1b470383
9,        299,        299,       21,       19, 0x1b470383
7,        304,        304,       32,     1792, 0xee09f476
5,        309,        309,        0,     3779, 0x8c7f8ff5
0,        313,        522,       41,       77, 0x16990859, F=0x0
2,        313,        313,       42,       40, 0xc9ef0aba, F=0x0
4,        313,        313,       42,       22, 0x34340652, F=0x0
6,        313,        313,       41,      110, 0x667e1932, F=0x0
8,        313,        522,       41,       77, 0x16990859, F=0x0
3,        315,        315,        0,       15, 0x59350be2
1,        320,        320,       21,       19, 0x1b470383
9,        320,        320,       21,       19, 0x1b470383
3,        334,        334,        0,       15, 0x59350be2
7,        336,        336,       32,     1792, 0xee09f476
1,        341,        341,       21,       19, 0x1b470383
9,        341,        341,       21,       19, 0x1b470383
3,        354,        354,        0,       15, 0x59350be2
0,        355,        438,       41,       70, 0xe9d2042d, F=0x0
2,        355,        355,       42,       40, 0xcd430ad4, F=0x0
4,        355,        355,       42,        5, 0x016200e5, F=0x0
6,        355,        396,       41,      109, 0x43fd190c, F=0x0
8,        355,        438,       41,       70, 0xe9d2042d, F=0x0
1,        362,        362,       21,       19, 0x1b470383
9,        362,        362,       21,       19, 0x1b470383
7,        368,        368,       32,     1792, 0x2fe7f033
3,        374,        374,        0,     1252, 0xf8657654
1,        384,        384,       21,      313, 0xbdde8d6e
9,        384,        384,       21,      313, 0xbdde8d6e
3,        394,        394,        0,     1624, 0xec4dd3db
0,        396,        396,       41,       68, 0xcdba03b8, F=0x0
2,        396,        396,       42,       40, 0xc9ef0aba, F=0x0
4,        396,        396,       42,       62, 0x94580eaf, F=0x0
6,        396,        605,       41,      124, 0xcac92096, F=0x0
8,        396,        396,       41,       68, 0xcdba03b8, F=0x0
7,        399,        399,       32,     1792, 0xad7da363
1,        405,        405,       21,      570, 0x5b040427
5,        405,        405,        0,    10030, 0x740db62d
9,        405,        405,       21,      570, 0x5b040427
3,        414,        414,        0,     1134, 0x8e29325b
1,        426,        426,       21,      521, 0xa441ef96
9,        426,        426,       21,      521, 0xa441ef96
7,        431,        431,       32,     1792, 0x89b068a2
3,        434,        434,        0,     1115, 0x750c22ca
0,        438,        480,       41,       68, 0xcbd403b0, F=0x0
2,        438,        438,       42,       40, 0xe0430b54, F=0x0
4,        438,        438,       42,        5, 0x01920115, F=0x0
6,        438,        522,       41,      114, 0xfda61529, F=0x0
8,        438,        480,       41,       68, 0xcbd403b0, F=0x0
1,        447,        447,       21,      532, 0x9275ffc1
9,        447,        447,       21,      532, 0x9275ffc1
3,        454,        454,        0,     1161, 0xae863cfe
7,        463,        463,       32,     1792, 0xd65a7e79
1,        469,        469,       21,      530, 0x41f9fc20
9,        469,        469,       21,      530, 0x41f9fc20
3,        474,        474,        0,     1267, 0xe44a6835
0,        480,        688,       41,       77, 0x2976089e, F=0x0
2,        480,        480,       42,       40, 0xc9ef0aba, F=0x0
4,        480,        480,       42,       22, 0x2ce2052e, F=0x0
6,        480,        480,       41,      109, 0xa0e319fb, F=0x0
8,        480,        688,       41,       77, 0x2976089e, F=0x0
1,        490,        490,       21,      550, 0x8e2afc2c
9,        490,        490,       21,      550, 0x8e2afc2c
3,        494,        494,        0,     1257, 0xf2ec5bd6
7,        495,        495,       32,     1792, 0x3af283bc
5,        500,        500,        0,    10412, 0x48874106
1,        511,        511,       21,      553, 0x1e5b0682
9,        511,        511,       21,      553, 0x1e5b0682
3,        514,        514,        0,     1111, 0x83c4237c
0,        522,        605,       41,       70, 0xbb130372, F=0x0
2,        522,        522,       42,       40, 0xd1c90af7, F=0x0
4,        522,        522,       42,        5, 0x01820105, F=0x0
6,        522,        563,       41,      109, 0x443b190a, F=0x0
8,        522,        605,       41,       70, 0xbb130372, F=0x0
7,        527,        527,       32,     1792, 0xc7bd912d
1,        532,        532,       21,      530, 0xba39f126
9,        532,        532,       21,      530, 0xba39f126
3,        534,        534,        0,     1064, 0xbad60dc3
3,        554,        554,        0,     1079, 0x46820b93
1,        555,        555,       21,      543, 0x6339f7d8
9,        555,        555,       21,      543, 0x6339f7d8
7,        560,        560,       32,     1792, 0xd61966d1
0,        563,        563,       41,       68, 0xa07202fe, F=0x0
2,        563,        563,       42,       40, 0xc9ef0aba, F=0x0
4,        563,        563,       42,       42, 0xa58108fe, F=0x0
6,        563,        688,       41,      124, 0x34e31cdb, F=0x0
8,        563,        563,       41,       68, 0xa07202fe, F=0x0
3,        575,        575,        0,     1105, 0xecc21f1e
1,        576,        576,       21,      520, 0x375cf7a6
9,        576,        576,       21,      520, 0x375cf7a6
7,        592,        592,       32,     1792, 0x913a6db9
3,        594,        594,        0,     1097, 0xaab72a81
1,        597,        597,       21,      548, 0xd80dff5b
5,        597,        597,        0,    10417, 0x120d4023
9,        597,        597,       21,      548, 0xd80dff5b
0,        605,        647,       41,       68, 0x9e8b02f5, F=0x0
2,        605,        605,       42,       40, 0xe68b0b98, F=0x0
4,        605,        605,       42,        5, 0x01920115, F=0x0
6,        605,        647,       41,      109, 0xc6631a5f, F=0x0
8,        605,        647,       41,       68, 0x9e8b02f5, F=0x0
3,        614,        614,        0,     1107, 0x9f332c8c
1,        618,        618,       21,      523, 0x7850f4f4
9,        618,        618,       21,      523, 0x7850f4f4
7,        624,        624,       32,     1792, 0x4f1c7fd7
3,        634,        634,        0,     1084, 0x4a74176d
1,        640,        640,       21,      523, 0x547bf862
9,        640,        640,       21,      523, 0x547bf862
0,        647,        855,       41,       77, 0xeff408ba, F=0x0
2,        647,        647,       42,       40, 0xc9ef0aba, F=0x0
4,        647,        647,       42,       22, 0x2a27047e, F=0x0
6,        647,        855,       41,      125, 0x8a0d1fef, F=0x0
8,        647,        855,       41,       77, 0xeff408ba, F=0x0
3,        654,        654,        0,     1118, 0xaf732ec2
7,        655,        655,       32,     1792, 0xfe4ca005
1,        661,        661,       21,      494, 0xf59bdfb5
9,        661,        661,       21,      494, 0xf59bdfb5
3,        674,        674,        0,     1040, 0xc4e8fb8a
1,        682,        682,       21,      547, 0x88ea03f7
9,        682,        682,       21,      547, 0x88ea03f7
7,        687,        687,       32,     1792, 0x023e79e8
0,        688,        772,       41,       70, 0xcc1303b6, F=0x0
2,        688,        688,       42,       40, 0xcd430ad4, F=0x0
4,        688,        688,       42,        5, 0x013200b5, F=0x0
6,        688,        772,       41,      114, 0xa578145f, F=0x0
8,        688,        772,       41,       70, 0xcc1303b6, F=0x0
5,        693,        693,        0,    10504, 0x212a9442
3,        694,        694,        0,     1030, 0x78f30a2b
1,        703,        703,       21,      546, 0x0a44fd6c
9,        703,        703,       21,      546, 0x0a44fd6c
3,        714,        714,        0,     1028, 0x0ca90d25
7,        719,        719,       32,     1792, 0x23b89112
1,        725,        725,       21,      533, 0x530def9c
9,        725,        725,       21,      533, 0x530def9c
0,        730,        730,       41,       68, 0xb0e90341, F=0x0
2,        730,        730,       42,       40, 0xc9ef0aba, F=0x0
4,        730,        730,       42,   107543, 0x68b9d23c, F=0x0
6,        730,        730,       41,      110, 0x3ddc18d1, F=0x0
8,        730,        730,       41,       68, 0xb0e90341, F=0x0
3,        734,        734,        0,     1044, 0xd3cf1014
1,        746,        746,       21,      551, 0x03fcfccc
9,        746,        746,       21,      551, 0x03fcfccc
7,        751,        751,       32,     1792, 0x4ae48791
3,        754,        754,        0,      969, 0x7599d7d6
1,        767,        767,       21,      553, 0x4330f7c7
9,        767,        767,       21,      553, 0x4330f7c7
0,        772,        813,       41,       68, 0xaf030339, F=0x0
2,        772,        772,       42,       40, 0xe68b0b98, F=0x0
4,        772,        772,       42,        5, 0x01920115, F=0x0
6,        772,        813,       41,      109, 0xc3ca1a60, F=0x0
8,        772,        813,       41,       68, 0xaf030339, F=0x0
3,        774,        774,        0,      982, 0x782bf3f8
7,        783,        783,       32,     1792, 0xb537603b
1,        788,        788,       21,      542, 0x37f1f998
5,        788,        788,        0,    10170, 0x0c463927
9,        788,        788,       21,      542, 0x37f1f998
3,        794,        794,        0,      961, 0x4642c74c
1,        811,        811,       21,      556, 0xe18c043a
9,        811,        811,       21,      556, 0xe18c043a
0,        813,       1022,       41,       77, 0xe3e90816, F=0x0
2,        813,        813,       42,       40, 0xc9ef0aba, F=0x0
4,        813,        813,       42,       22, 0x28fa0523, F=0x0
6,        813,       1064,       41,      826, 0x65be83c8, F=0x0
8,        813,       1022,       41,       77, 0xe3e90816, F=0x0
3,        814,        814,        0,      968, 0x843fdd92
7,        816,        816,       32,     1792, 0x2366699c
1,        832,        832,       21,      530, 0x84d8ed9c
9,        832,        832,       21,      530, 0x84d8ed9c
3,        835,        835,        0,      961, 0x2962dfdb
7,        848,        848,       32,     1792, 0xb78783d5
1,        853,        853,       21,      529, 0xf4a4f940
9,        853,        853,       21,      529, 0xf4a4f940
3,        854,        854,        0,      970, 0x056be6ec
0,        855,        939,       41,       70, 0xdd1203f9, F=0x0
2,        855,        855,       42,       40, 0xe0430b54, F=0x0
4,        855,        855,       42,        5, 0x01820105, F=0x0
6,        855,        980,       41,      115, 0x6649183e, F=0x0
8,        855,        939,       41,       70, 0xdd1203f9, F=0x0
1,        874,        874,       21,      504, 0x66c7e630
3,        874,        874,        0,      968, 0x2252e2eb
9,        874,        874,       21,      504, 0x66c7e630
7,        880,        880,       32,     1792, 0x724889d0
5,        885,        885,        0,    10005, 0xb833515c
3,        894,        894,        0,      962, 0x2966ec5e
1,        896,        896,       21,      526, 0x4874ef3f
9,        896,        896,       21,      526, 0x4874ef3f
0,        897,        897,       41,       68, 0xc1620386, F=0x0
2,        897,        897,       42,       40, 0xc9ef0aba, F=0x0
4,        897,        897,       42,       42, 0xb5f20952, F=0x0
6,        897,        897,       41,      110, 0x4dae18f4, F=0x0
8,        897,        897,       41,       68, 0xc1620386, F=0x0
7,        911,        911,       32,     1792, 0x9a208029
3,        914,        914,        0,     1019, 0xb5f6f2b4
1,        917,        917,       21,      551, 0xc5b309a1
9,        917,        917,       21,      551, 0xc5b309a1
3,        934,        934,        0,      954, 0x1b35d2f7
1,        938,        938,       21,      540, 0x0193ed03
9,        938,        938,       21,      540, 0x0193ed03
0,        939,        980,       41,       68, 0xbf7c037e, F=0x0
2,        939,        939,       42,       40, 0xe68b0b98, F=0x0
4,        939,        939,       42,        5, 0x01920115, F=0x0
6,        939,        939,       41,      110, 0x72ae1954, F=0x0
8,        939,        980,       41,       68, 0xbf7c037e, F=0x0
7,        943,        943,       32,     1792, 0xacfd84df
3,        954,        954,        0,      978, 0x6344e7ff
1,        959,        959,       21,      554, 0x24930f90
9,        959,        959,       21,      554, 0x24930f90
3,        974,        974,        0,     1010, 0x05adefd9
7,        975,        975,       32,     1792, 0x07d17807
0,        980,       1064,       41,     7628, 0x8eba7be5
2,        980,        980,       42,       40, 0xc9ef0aba, F=0x0
4,        980,        980,       42,       22, 0x2b200478, F=0x0
6,        980,       1022,       41,      110, 0xc0d61b2b, F=0x0
8,        980,       1064,       41,     7628, 0x8eba7be5
1,        981,        981,       21,      523, 0xa60de90c
5,        981,        981,        0,    19334, 0x5ccf22f7
9,        981,        981,       21,      523, 0xa60de90c
3,        994,        994,        0,      972, 0x3357dbfd
1,       1002,       1002,       21,      542, 0xa70aebe9
9,       1002,       1002,       21,      542, 0xa70aebe9
7,       1007,       1007,       32,     1792, 0xd2268e1d
3,       1014,       1014,        0,     1067, 0xf6f2163f
0,       1022,       1105,       41,     5442, 0xf7cbb833, F=0x0
2,       1022,       1022,       42,       40, 0xcd430ad4, F=0x0
4,       1022,       1022,       42,        5, 0x017200f5, F=0x0
6,       1022,       1105,       41,      999, 0x26a9d29c, F=0x0
8,       1022,       1105,       41,     5442, 0xf7cbb833, F=0x0
1,       1023,       1023,       21,     1913, 0xecbbdf7a
9,       1023,       1023,       21,     1913, 0xecbbdf7a
3,       1034,       1034,        0,     1473, 0xb67ee1ee
7,       1039,       1039,       32,     1792, 0xa22e5cb2
1,       1044,       1044,       21,     2032, 0x65aad016
9,       1044,       1044,       21,     2032, 0x65aad016
3,       1054,       1054,        0,     1290, 0x3f9688e3
0,       1064,       1189,       41,    14200, 0x813daca6, F=0x0
2,       1064,       1064,       42,      960, 0x3710e507, F=0x0
4,       1064,       1064,       42,     7854, 0x60910c05, F=0x0
6,       1064,       1231,       41,     6889, 0xa1254f52, F=0x0
8,       1064,       1189,       41,    14200, 0x813daca6, F=0x0
1,       1067,       1067,       21,     1258, 0x32d475b5
9,       1067,       1067,       21,     1258, 0x32d475b5
7,       1072,       1072,       32,     1792, 0xffdb61d8
3,       1074,       1074,        0,     1048, 0x98e30b4d
5,       1077,       1077,        0,    37521, 0x5b238833
1,       1088,       1088,       21,     1186, 0x0ca64baf
9,       1088,       1088,       21,     1186, 0x0ca64baf
3,       1095,       1095,        0,      881, 0xc274c8d9
7,       1104,       1104,       32,     1792, 0x50b07a96
0,       1105,       1147,       41,     9137, 0x15989d9e, F=0x0
2,       1105,       1105,       42,     1641, 0x83802f98, F=0x0
4,       1105,       1105,       42,        5, 0x01920115, F=0x0
6,       1105,       1189,       41,     4793, 0x38ac3a53, F=0x0
8,       1105,       1147,       41,     9137, 0x15989d9e, F=0x0
1,       1109,       1109,       21,     1203, 0x51c65b38
9,       1109,       1109,       21,     1203, 0x51c65b38
3,       1114,       1114,        0,     1008, 0x47a2f83a
1,       1130,       1130,       21,     1172, 0x8ffc437c
9,       1130,       1130,       21,     1172, 0x8ffc437c
3,       1134,       1134,        0,      811, 0x3ae5a4b5
7,       1136,       1136,       32,     1792, 0x8fe163dd
0,       1147,       1314,       41,    63451, 0x0953bfcd, F=0x0
2,       1147,       1147,       42,     3111, 0xed451728, F=0x0
4,       1147,       1147,       42,     2621, 0xe5522128, F=0x0
6,       1147,       1147,       41,     2044, 0x13f8e567, F=0x0
8,       1147,       1314,       41,    63451, 0x0953bfcd, F=0x0
1,       1152,       1152,       21,     1164, 0xb72c3472
9,       1152,       1152,       21,     1164, 0xb72c3472
3,       1154,       1154,        0,      853, 0x56bfb5d9
7,       1167,       1167,       32,     1792, 0xa8d884e5
1,       1173,       1173,       21,     1080, 0x1a1d26c6
5,       1173,       1173,        0,    40180, 0xbbdb8572
9,       1173,       1173,       21,     1080, 0x1a1d26c6
3,       1174,       1174,        0,      865, 0x122ea9d9
0,       1189,       1231,       41,    15867, 0x35c7df5f, F=0x0
2,       1189,       1189,       42,     8941, 0x11155016, F=0x0
4,       1189,       1189,       42,        5, 0x01820105, F=0x0
6,       1189,       1272,       41,    21474, 0x9d3f5fec
8,       1189,       1231,       41,    15867, 0x35c7df5f, F=0x0
1,       1194,       1194,       21,     1170, 0xbab33506
3,       1194,       1194,        0,      845, 0xa6ecaaaf
9,       1194,       1194,       21,     1170, 0xbab33506
7,       1199,       1199,       32,     1792, 0x64d965ea
3,       1214,       1214,        0,      776, 0x53048aa6
1,       1215,       1215,       21,     1141, 0x846934eb
9,       1215,       1215,       21,     1141, 0x846934eb
0,       1231,       1272,       41,    29754, 0x94fe0570, F=0x0
2,       1231,       1231,       42,     7895, 0xef3c7e4b, F=0x0
4,       1231,       1231,       42,    18772, 0xe8c3913f, F=0x0
6,       1231,       1481,       41,   143562, 0x80395e78, F=0x0
7,       1231,       1231,       32,     1792, 0x0708612e
8,       1231,       1272,       41,    29754, 0x94fe0570, F=0x0
3,       1234,       1234,        0,      844, 0xb111a517
1,       1237,       1237,       21,     1122, 0x784a34ad
9,       1237,       1237,       21,     1122, 0x784a34ad
3,       1254,       1254,        0,      785, 0xfd8e90e6
1,       1258,       1258,       21,     1112, 0x700f1a29
9,       1258,       1258,       21,     1112, 0x700f1a29
7,       1263,       1263,       32,     1792, 0xc2ac73b2
5,       1268,       1268,        0,    43473, 0x4814b0ce
0,       1272,       1356,       41,   107740, 0xa6c8a08c, F=0x0
2,       1272,       1272,       42,    31230, 0x35107fe1, F=0x0
4,       1272,       1272,       42,        5, 0x01920115, F=0x0
6,       1272,       1397,       41,    72520, 0x3a6a6f51, F=0x0
8,       1272,       1356,       41,   107740, 0xa6c8a08c, F=0x0
3,       1274,       1274,        0,      780, 0xfe4886ea
1,       1279,       1279,       21,     1088, 0xa01a15aa
9,       1279,       1279,       21,     1088, 0xa01a15aa
3,       1294,       1294,        0,      849, 0xa8c1a6a9
7,       1295,       1295,       32,     1792, 0x3952763c
1,       1300,       1300,       21,     1059, 0xe1051113
9,       1300,       1300,       21,     1059, 0xe1051113
0,       1314,       1397,       41,   150123, 0x8c6dba5e, F=0x0
2,       1314,       1314,       42,    51277, 0x8102a8e7, F=0x0
3,       1314,       1314,        0,      843, 0x06c39872
4,       1314,       1314,       42,    34614, 0xc863a216, F=0x0
6,       1314,       1314,       41,    28062, 0xca10b47f, F=0x0
8,       1314,       1397,       41,   150123, 0x8c6dba5e, F=0x0
1,       1323,       1323,       21,     1044, 0xda5dfc47
9,       1323,       1323,       21,     1044, 0xda5dfc47
7,       1328,       1328,       32,     1792, 0xffb87863
3,       1334,       1334,        0,      831, 0x52b6a03f
1,       1344,       1344,       21,     1036, 0xb7dcffb0
9,       1344,       1344,       21,     1036, 0xb7dcffb0
3,       1355,       1355,        0,      803, 0x98878962
0,       1356,       1439,       41,   170005, 0x86b964a7, F=0x0
2,       1356,       1356,       42,   138400, 0x1d04136c, F=0x0
4,       1356,       1356,       42,        5, 0x014200c5, F=0x0
6,       1356,       1356,       41,    47040, 0x7dd53447, F=0x0
8,       1356,       1439,       41,   170005, 0x86b964a7, F=0x0
7,       1360,       1360,       32,     1792, 0x47797cc9
1,       1365,       1365,       21,     1033, 0xac4f064e
5,       1365,       1365,        0,    39884, 0x3fb35476
9,       1365,       1365,       21,     1033, 0xac4f064e
3,       1374,       1374,        0,      851, 0xc249a4fa
1,       1386,       1386,       21,     1080, 0x1730110b
9,       1386,       1386,       21,     1080, 0x1730110b
7,       1392,       1392,       32,     1792, 0xd54f62b7
3,       1394,       1394,        0,      817, 0x5dfc9836
0,       1397,       1481,       41,   203536, 0xfbe74067, F=0x0
2,       1397,       1397,       42,   124357, 0xec0e59f9, F=0x0
4,       1397,       1397,       42,   220459, 0x6d3b7d06, F=0x0
6,       1397,       1439,       41,   112448, 0xdf4873be, F=0x0
8,       1397,       1481,       41,   203536, 0xfbe74067, F=0x0
1,       1408,       1408,       21,     1100, 0x50a33596
9,       1408,       1408,       21,     1100, 0x50a33596
3,       1414,       1414,        0,      882, 0x2b83b391
7,       1423,       1423,       32,     1792, 0x817a4b9a
1,       1429,       1429,       21,     1050, 0x875b0a0a
9,       1429,       1429,       21,     1050, 0x875b0a0a
3,       1434,       1434,        0,      889, 0x0dbcbae9
0,       1439,       1523,       41,   235796, 0xf3ee6ff5, F=0x0
2,       1439,       1439,       42,   175532, 0x6cafaad7, F=0x0
4,       1439,       1439,       42,        5, 0x015200d5, F=0x0
8,       1439,       1523,       41,   235796, 0xf3ee6ff5, F=0x0
1,       1450,       1450,       21,     1074, 0x1ac71df4
9,       1450,       1450,       21,     1074, 0x1ac71df4
3,       1454,       1454,        0,      884, 0x1c5abc04
7,       1455,       1455,       32,     1792, 0x7d2377c5
5,       1461,       1461,        0,    24113, 0xe9964a1b
1,       1471,       1471,       21,     1043, 0x35c90609
9,       1471,       1471,       21,     1043, 0x35c90609
3,       1474,       1474,        0,      856, 0x07b2b590
0,       1481,       1564,       41,   225642, 0x62033c94, F=0x0
2,       1481,       1481,       42,   182739, 0xbcdd304e, F=0x0
4,       1481,       1481,       42,   135471, 0xf390ccb2, F=0x0
8,       1481,       1564,       41,   225642, 0x62033c94, F=0x0
7,       1487,       1487,       32,     1792, 0x36df484c
1,       1493,       1493,       21,     1007, 0xae1d0288
9,       1493,       1493,       21,     1007, 0xae1d0288
3,       1494,       1494,        0,      854, 0x33eaaef5
1,       1514,       1514,       21,     1044, 0x5c640d9c
3,       1514,       1514,        0,     1497, 0x327f97b3
9,       1514,       1514,       21,     1044, 0x5c640d9c
